<svg width="375" height="1392" viewBox="0 0 375 1392" fill="none" xmlns="http://www.w3.org/2000/svg">
<rect width="375" height="1392" fill="#112372"/>
<mask id="mask0_1_2259" style="mask-type:luminance" maskUnits="userSpaceOnUse" x="0" y="0" width="375" height="1392">
<rect width="375" height="1392" fill="white"/>
</mask>
<g mask="url(#mask0_1_2259)">
<path d="M86 1525C141.781 1525 187 1479.78 187 1424C187 1368.22 141.781 1323 86 1323C30.2192 1323 -15 1368.22 -15 1424C-15 1479.78 30.2192 1525 86 1525Z" fill="#55B184"/>
<path d="M35 1538C97.9605 1538 149 1486.96 149 1424C149 1361.04 97.9605 1310 35 1310C-27.9605 1310 -79 1361.04 -79 1424C-79 1486.96 -27.9605 1538 35 1538Z" fill="#3576EC"/>
<mask id="mask1_1_2259" style="mask-type:luminance" maskUnits="userSpaceOnUse" x="159" y="-61" width="244" height="244">
<path d="M281 183C348.379 183 403 128.379 403 61C403 -6.37874 348.379 -61 281 -61C213.621 -61 159 -6.37874 159 61C159 128.379 213.621 183 281 183Z" fill="white"/>
</mask>
<g mask="url(#mask1_1_2259)">
<path fill-rule="evenodd" clip-rule="evenodd" d="M323.526 -2.55713C323.526 -1.45256 322.631 -0.557129 321.526 -0.557129C320.422 -0.557129 319.526 -1.45256 319.526 -2.55713C319.526 -3.6617 320.422 -4.55713 321.526 -4.55713C322.631 -4.55713 323.526 -3.6617 323.526 -2.55713ZM321.526 15.4429C322.631 15.4429 323.526 14.5474 323.526 13.4429C323.526 12.3383 322.631 11.4429 321.526 11.4429C320.422 11.4429 319.526 12.3383 319.526 13.4429C319.526 14.5474 320.422 15.4429 321.526 15.4429ZM337.526 15.4429C338.631 15.4429 339.526 14.5474 339.526 13.4429C339.526 12.3383 338.631 11.4429 337.526 11.4429C336.422 11.4429 335.526 12.3383 335.526 13.4429C335.526 14.5474 336.422 15.4429 337.526 15.4429ZM355.526 13.4429C355.526 14.5474 354.631 15.4429 353.526 15.4429C352.422 15.4429 351.526 14.5474 351.526 13.4429C351.526 12.3383 352.422 11.4429 353.526 11.4429C354.631 11.4429 355.526 12.3383 355.526 13.4429ZM369.526 15.4429C370.631 15.4429 371.526 14.5474 371.526 13.4429C371.526 12.3383 370.631 11.4429 369.526 11.4429C368.422 11.4429 367.526 12.3383 367.526 13.4429C367.526 14.5474 368.422 15.4429 369.526 15.4429ZM387.526 13.4429C387.526 14.5474 386.631 15.4429 385.526 15.4429C384.422 15.4429 383.526 14.5474 383.526 13.4429C383.526 12.3383 384.422 11.4429 385.526 11.4429C386.631 11.4429 387.526 12.3383 387.526 13.4429ZM401.526 15.4429C402.631 15.4429 403.526 14.5474 403.526 13.4429C403.526 12.3383 402.631 11.4429 401.526 11.4429C400.422 11.4429 399.526 12.3383 399.526 13.4429C399.526 14.5474 400.422 15.4429 401.526 15.4429ZM337.526 -0.557129C338.631 -0.557129 339.526 -1.45256 339.526 -2.55713C339.526 -3.6617 338.631 -4.55713 337.526 -4.55713C336.422 -4.55713 335.526 -3.6617 335.526 -2.55713C335.526 -1.45256 336.422 -0.557129 337.526 -0.557129ZM355.526 -2.55713C355.526 -1.45256 354.631 -0.557129 353.526 -0.557129C352.422 -0.557129 351.526 -1.45256 351.526 -2.55713C351.526 -3.6617 352.422 -4.55713 353.526 -4.55713C354.631 -4.55713 355.526 -3.6617 355.526 -2.55713ZM369.526 -0.557129C370.631 -0.557129 371.526 -1.45256 371.526 -2.55713C371.526 -3.6617 370.631 -4.55713 369.526 -4.55713C368.422 -4.55713 367.526 -3.6617 367.526 -2.55713C367.526 -1.45256 368.422 -0.557129 369.526 -0.557129ZM387.526 -2.55713C387.526 -1.45256 386.631 -0.557129 385.526 -0.557129C384.422 -0.557129 383.526 -1.45256 383.526 -2.55713C383.526 -3.6617 384.422 -4.55713 385.526 -4.55713C386.631 -4.55713 387.526 -3.6617 387.526 -2.55713ZM401.526 -0.557129C402.631 -0.557129 403.526 -1.45256 403.526 -2.55713C403.526 -3.6617 402.631 -4.55713 401.526 -4.55713C400.422 -4.55713 399.526 -3.6617 399.526 -2.55713C399.526 -1.45256 400.422 -0.557129 401.526 -0.557129ZM217.526 15.4429C218.631 15.4429 219.526 14.5474 219.526 13.4429C219.526 12.3383 218.631 11.4429 217.526 11.4429C216.422 11.4429 215.526 12.3383 215.526 13.4429C215.526 14.5474 216.422 15.4429 217.526 15.4429ZM233.526 15.4429C234.631 15.4429 235.526 14.5474 235.526 13.4429C235.526 12.3383 234.631 11.4429 233.526 11.4429C232.422 11.4429 231.526 12.3383 231.526 13.4429C231.526 14.5474 232.422 15.4429 233.526 15.4429ZM251.526 13.4429C251.526 14.5474 250.631 15.4429 249.526 15.4429C248.422 15.4429 247.526 14.5474 247.526 13.4429C247.526 12.3383 248.422 11.4429 249.526 11.4429C250.631 11.4429 251.526 12.3383 251.526 13.4429ZM265.526 15.4429C266.631 15.4429 267.526 14.5474 267.526 13.4429C267.526 12.3383 266.631 11.4429 265.526 11.4429C264.422 11.4429 263.526 12.3383 263.526 13.4429C263.526 14.5474 264.422 15.4429 265.526 15.4429ZM283.526 13.4429C283.526 14.5474 282.631 15.4429 281.526 15.4429C280.422 15.4429 279.526 14.5474 279.526 13.4429C279.526 12.3383 280.422 11.4429 281.526 11.4429C282.631 11.4429 283.526 12.3383 283.526 13.4429ZM297.526 15.4429C298.631 15.4429 299.526 14.5474 299.526 13.4429C299.526 12.3383 298.631 11.4429 297.526 11.4429C296.422 11.4429 295.526 12.3383 295.526 13.4429C295.526 14.5474 296.422 15.4429 297.526 15.4429ZM217.526 -0.557129C218.631 -0.557129 219.526 -1.45256 219.526 -2.55713C219.526 -3.6617 218.631 -4.55713 217.526 -4.55713C216.422 -4.55713 215.526 -3.6617 215.526 -2.55713C215.526 -1.45256 216.422 -0.557129 217.526 -0.557129ZM227.526 29.4429C227.526 30.5474 226.631 31.4429 225.526 31.4429C224.422 31.4429 223.526 30.5474 223.526 29.4429C223.526 28.3383 224.422 27.4429 225.526 27.4429C226.631 27.4429 227.526 28.3383 227.526 29.4429ZM225.526 47.4429C226.631 47.4429 227.526 46.5474 227.526 45.4429C227.526 44.3383 226.631 43.4429 225.526 43.4429C224.422 43.4429 223.526 44.3383 223.526 45.4429C223.526 46.5474 224.422 47.4429 225.526 47.4429ZM241.526 47.4429C242.631 47.4429 243.526 46.5474 243.526 45.4429C243.526 44.3383 242.631 43.4429 241.526 43.4429C240.422 43.4429 239.526 44.3383 239.526 45.4429C239.526 46.5474 240.422 47.4429 241.526 47.4429ZM259.526 45.4429C259.526 46.5474 258.631 47.4429 257.526 47.4429C256.422 47.4429 255.526 46.5474 255.526 45.4429C255.526 44.3383 256.422 43.4429 257.526 43.4429C258.631 43.4429 259.526 44.3383 259.526 45.4429ZM273.526 47.4429C274.631 47.4429 275.526 46.5474 275.526 45.4429C275.526 44.3383 274.631 43.4429 273.526 43.4429C272.422 43.4429 271.526 44.3383 271.526 45.4429C271.526 46.5474 272.422 47.4429 273.526 47.4429ZM291.526 45.4429C291.526 46.5474 290.631 47.4429 289.526 47.4429C288.422 47.4429 287.526 46.5474 287.526 45.4429C287.526 44.3383 288.422 43.4429 289.526 43.4429C290.631 43.4429 291.526 44.3383 291.526 45.4429ZM305.526 47.4429C306.631 47.4429 307.526 46.5474 307.526 45.4429C307.526 44.3383 306.631 43.4429 305.526 43.4429C304.422 43.4429 303.526 44.3383 303.526 45.4429C303.526 46.5474 304.422 47.4429 305.526 47.4429ZM241.526 31.4429C242.631 31.4429 243.526 30.5474 243.526 29.4429C243.526 28.3383 242.631 27.4429 241.526 27.4429C240.422 27.4429 239.526 28.3383 239.526 29.4429C239.526 30.5474 240.422 31.4429 241.526 31.4429ZM259.526 29.4429C259.526 30.5474 258.631 31.4429 257.526 31.4429C256.422 31.4429 255.526 30.5474 255.526 29.4429C255.526 28.3383 256.422 27.4429 257.526 27.4429C258.631 27.4429 259.526 28.3383 259.526 29.4429ZM273.526 31.4429C274.631 31.4429 275.526 30.5474 275.526 29.4429C275.526 28.3383 274.631 27.4429 273.526 27.4429C272.422 27.4429 271.526 28.3383 271.526 29.4429C271.526 30.5474 272.422 31.4429 273.526 31.4429ZM291.526 29.4429C291.526 30.5474 290.631 31.4429 289.526 31.4429C288.422 31.4429 287.526 30.5474 287.526 29.4429C287.526 28.3383 288.422 27.4429 289.526 27.4429C290.631 27.4429 291.526 28.3383 291.526 29.4429ZM305.526 31.4429C306.631 31.4429 307.526 30.5474 307.526 29.4429C307.526 28.3383 306.631 27.4429 305.526 27.4429C304.422 27.4429 303.526 28.3383 303.526 29.4429C303.526 30.5474 304.422 31.4429 305.526 31.4429ZM233.526 -0.557129C234.631 -0.557129 235.526 -1.45256 235.526 -2.55713C235.526 -3.6617 234.631 -4.55713 233.526 -4.55713C232.422 -4.55713 231.526 -3.6617 231.526 -2.55713C231.526 -1.45256 232.422 -0.557129 233.526 -0.557129ZM323.526 29.4429C323.526 30.5474 322.631 31.4429 321.526 31.4429C320.422 31.4429 319.526 30.5474 319.526 29.4429C319.526 28.3383 320.422 27.4429 321.526 27.4429C322.631 27.4429 323.526 28.3383 323.526 29.4429ZM321.526 47.4429C322.631 47.4429 323.526 46.5474 323.526 45.4429C323.526 44.3383 322.631 43.4429 321.526 43.4429C320.422 43.4429 319.526 44.3383 319.526 45.4429C319.526 46.5474 320.422 47.4429 321.526 47.4429ZM337.526 47.4429C338.631 47.4429 339.526 46.5474 339.526 45.4429C339.526 44.3383 338.631 43.4429 337.526 43.4429C336.422 43.4429 335.526 44.3383 335.526 45.4429C335.526 46.5474 336.422 47.4429 337.526 47.4429ZM355.526 45.4429C355.526 46.5474 354.631 47.4429 353.526 47.4429C352.422 47.4429 351.526 46.5474 351.526 45.4429C351.526 44.3383 352.422 43.4429 353.526 43.4429C354.631 43.4429 355.526 44.3383 355.526 45.4429ZM369.526 47.4429C370.631 47.4429 371.526 46.5474 371.526 45.4429C371.526 44.3383 370.631 43.4429 369.526 43.4429C368.422 43.4429 367.526 44.3383 367.526 45.4429C367.526 46.5474 368.422 47.4429 369.526 47.4429ZM387.526 45.4429C387.526 46.5474 386.631 47.4429 385.526 47.4429C384.422 47.4429 383.526 46.5474 383.526 45.4429C383.526 44.3383 384.422 43.4429 385.526 43.4429C386.631 43.4429 387.526 44.3383 387.526 45.4429ZM401.526 47.4429C402.631 47.4429 403.526 46.5474 403.526 45.4429C403.526 44.3383 402.631 43.4429 401.526 43.4429C400.422 43.4429 399.526 44.3383 399.526 45.4429C399.526 46.5474 400.422 47.4429 401.526 47.4429ZM337.526 31.4429C338.631 31.4429 339.526 30.5474 339.526 29.4429C339.526 28.3383 338.631 27.4429 337.526 27.4429C336.422 27.4429 335.526 28.3383 335.526 29.4429C335.526 30.5474 336.422 31.4429 337.526 31.4429ZM355.526 29.4429C355.526 30.5474 354.631 31.4429 353.526 31.4429C352.422 31.4429 351.526 30.5474 351.526 29.4429C351.526 28.3383 352.422 27.4429 353.526 27.4429C354.631 27.4429 355.526 28.3383 355.526 29.4429ZM369.526 31.4429C370.631 31.4429 371.526 30.5474 371.526 29.4429C371.526 28.3383 370.631 27.4429 369.526 27.4429C368.422 27.4429 367.526 28.3383 367.526 29.4429C367.526 30.5474 368.422 31.4429 369.526 31.4429ZM387.526 29.4429C387.526 30.5474 386.631 31.4429 385.526 31.4429C384.422 31.4429 383.526 30.5474 383.526 29.4429C383.526 28.3383 384.422 27.4429 385.526 27.4429C386.631 27.4429 387.526 28.3383 387.526 29.4429ZM401.526 31.4429C402.631 31.4429 403.526 30.5474 403.526 29.4429C403.526 28.3383 402.631 27.4429 401.526 27.4429C400.422 27.4429 399.526 28.3383 399.526 29.4429C399.526 30.5474 400.422 31.4429 401.526 31.4429ZM249.526 -0.557129C250.631 -0.557129 251.526 -1.45256 251.526 -2.55713C251.526 -3.6617 250.631 -4.55713 249.526 -4.55713C248.422 -4.55713 247.526 -3.6617 247.526 -2.55713C247.526 -1.45256 248.422 -0.557129 249.526 -0.557129ZM267.526 -2.55713C267.526 -1.45256 266.631 -0.557129 265.526 -0.557129C264.422 -0.557129 263.526 -1.45256 263.526 -2.55713C263.526 -3.6617 264.422 -4.55713 265.526 -4.55713C266.631 -4.55713 267.526 -3.6617 267.526 -2.55713ZM281.526 -0.557129C282.631 -0.557129 283.526 -1.45256 283.526 -2.55713C283.526 -3.6617 282.631 -4.55713 281.526 -4.55713C280.422 -4.55713 279.526 -3.6617 279.526 -2.55713C279.526 -1.45256 280.422 -0.557129 281.526 -0.557129ZM299.526 -2.55713C299.526 -1.45256 298.631 -0.557129 297.526 -0.557129C296.422 -0.557129 295.526 -1.45256 295.526 -2.55713C295.526 -3.6617 296.422 -4.55713 297.526 -4.55713C298.631 -4.55713 299.526 -3.6617 299.526 -2.55713Z" fill="white"/>
</g>
</g>
</svg>
