<svg width="375" height="864" viewBox="0 0 375 864" fill="none" xmlns="http://www.w3.org/2000/svg">
<rect width="375" height="864" fill="#112372"/>
<mask id="mask0_1_2117" style="mask-type:luminance" maskUnits="userSpaceOnUse" x="0" y="0" width="375" height="864">
<rect width="375" height="864" fill="white"/>
</mask>
<g mask="url(#mask0_1_2117)">
<path d="M140.5 1085C218.096 1085 281 1022.1 281 944.5C281 866.904 218.096 804 140.5 804C62.904 804 0 866.904 0 944.5C0 1022.1 62.904 1085 140.5 1085Z" fill="#E7A651"/>
<path d="M325 86C387.96 86 439 34.9605 439 -28C439 -90.9605 387.96 -142 325 -142C262.04 -142 211 -90.9605 211 -28C211 34.9605 262.04 86 325 86Z" fill="#3576EC"/>
<path d="M376 60C431.781 60 477 14.7808 477 -41C477 -96.7808 431.781 -142 376 -142C320.219 -142 275 -96.7808 275 -41C275 14.7808 320.219 60 376 60Z" fill="#55B184"/>
</g>
</svg>
