<svg width="48" height="48" viewBox="0 0 48 48" fill="none" xmlns="http://www.w3.org/2000/svg">
<path d="M24 48C37.2548 48 48 37.2548 48 24C48 10.7452 37.2548 0 24 0C10.7452 0 0 10.7452 0 24C0 37.2548 10.7452 48 24 48Z" fill="#3576EC"/>
<path fill-rule="evenodd" clip-rule="evenodd" d="M16.25 19.25C16.25 16.3584 18.6084 14 21.5 14C24.3916 14 26.75 16.3584 26.75 19.25C26.75 21.0576 25.8271 22.6631 24.4297 23.6094C24.793 23.7646 25.1533 23.9404 25.4844 24.1484C26.4717 23.4307 27.6904 23 29 23C32.3047 23 35 25.6953 35 29C35 32.3047 32.3047 35 29 35C25.6953 35 23 32.3047 23 29C23 27.5762 23.5039 26.2578 24.3359 25.2266C23.4922 24.7695 22.5312 24.5 21.5 24.5C18.1777 24.5 15.5 27.1777 15.5 30.5H14C14 27.4121 15.8955 24.7578 18.5703 23.6094C17.1729 22.6631 16.25 21.0576 16.25 19.25ZM25.25 19.25C25.25 17.1699 23.5801 15.5 21.5 15.5C19.4199 15.5 17.75 17.1699 17.75 19.25C17.75 21.3301 19.4199 23 21.5 23C23.5801 23 25.25 21.3301 25.25 19.25ZM29 24.5C31.4932 24.5 33.5 26.5068 33.5 29C33.5 31.4932 31.4932 33.5 29 33.5C26.5068 33.5 24.5 31.4932 24.5 29C24.5 26.5068 26.5068 24.5 29 24.5ZM29 29.4219L31.4609 26.9609L32.5391 28.0391L29.5391 31.0391L29 31.5547L28.4609 31.0391L26.2109 28.7891L27.2891 27.7109L29 29.4219Z" fill="white"/>
</svg>
