<svg width="362" height="276" viewBox="0 0 362 276" fill="none" xmlns="http://www.w3.org/2000/svg">
<rect x="10" width="370" height="256" rx="20" fill="#3576EC"/>
<mask id="mask0_4_154" style="mask-type:luminance" maskUnits="userSpaceOnUse" x="0" y="32" width="244" height="244">
<path d="M122 276C189.379 276 244 221.379 244 154C244 86.6213 189.379 32 122 32C54.6213 32 0 86.6213 0 154C0 221.379 54.6213 276 122 276Z" fill="white"/>
</mask>
<g mask="url(#mask0_4_154)">
<path fill-rule="evenodd" clip-rule="evenodd" d="M164.526 26.4431C164.526 27.5477 163.631 28.4431 162.526 28.4431C161.422 28.4431 160.526 27.5477 160.526 26.4431C160.526 25.3385 161.422 24.4431 162.526 24.4431C163.631 24.4431 164.526 25.3385 164.526 26.4431ZM162.526 44.4431C163.631 44.4431 164.526 43.5477 164.526 42.4431C164.526 41.3385 163.631 40.4431 162.526 40.4431C161.422 40.4431 160.526 41.3385 160.526 42.4431C160.526 43.5477 161.422 44.4431 162.526 44.4431ZM178.526 44.4431C179.631 44.4431 180.526 43.5477 180.526 42.4431C180.526 41.3385 179.631 40.4431 178.526 40.4431C177.422 40.4431 176.526 41.3385 176.526 42.4431C176.526 43.5477 177.422 44.4431 178.526 44.4431ZM196.526 42.4431C196.526 43.5477 195.631 44.4431 194.526 44.4431C193.422 44.4431 192.526 43.5477 192.526 42.4431C192.526 41.3385 193.422 40.4431 194.526 40.4431C195.631 40.4431 196.526 41.3385 196.526 42.4431ZM210.526 44.4431C211.631 44.4431 212.526 43.5477 212.526 42.4431C212.526 41.3385 211.631 40.4431 210.526 40.4431C209.422 40.4431 208.526 41.3385 208.526 42.4431C208.526 43.5477 209.422 44.4431 210.526 44.4431ZM228.526 42.4431C228.526 43.5477 227.631 44.4431 226.526 44.4431C225.422 44.4431 224.526 43.5477 224.526 42.4431C224.526 41.3385 225.422 40.4431 226.526 40.4431C227.631 40.4431 228.526 41.3385 228.526 42.4431ZM242.526 44.4431C243.631 44.4431 244.526 43.5477 244.526 42.4431C244.526 41.3385 243.631 40.4431 242.526 40.4431C241.422 40.4431 240.526 41.3385 240.526 42.4431C240.526 43.5477 241.422 44.4431 242.526 44.4431ZM178.526 28.4431C179.631 28.4431 180.526 27.5477 180.526 26.4431C180.526 25.3385 179.631 24.4431 178.526 24.4431C177.422 24.4431 176.526 25.3385 176.526 26.4431C176.526 27.5477 177.422 28.4431 178.526 28.4431ZM196.526 26.4431C196.526 27.5477 195.631 28.4431 194.526 28.4431C193.422 28.4431 192.526 27.5477 192.526 26.4431C192.526 25.3385 193.422 24.4431 194.526 24.4431C195.631 24.4431 196.526 25.3385 196.526 26.4431ZM210.526 28.4431C211.631 28.4431 212.526 27.5477 212.526 26.4431C212.526 25.3385 211.631 24.4431 210.526 24.4431C209.422 24.4431 208.526 25.3385 208.526 26.4431C208.526 27.5477 209.422 28.4431 210.526 28.4431ZM228.526 26.4431C228.526 27.5477 227.631 28.4431 226.526 28.4431C225.422 28.4431 224.526 27.5477 224.526 26.4431C224.526 25.3385 225.422 24.4431 226.526 24.4431C227.631 24.4431 228.526 25.3385 228.526 26.4431ZM242.526 28.4431C243.631 28.4431 244.526 27.5477 244.526 26.4431C244.526 25.3385 243.631 24.4431 242.526 24.4431C241.422 24.4431 240.526 25.3385 240.526 26.4431C240.526 27.5477 241.422 28.4431 242.526 28.4431ZM58.5264 44.4431C59.6309 44.4431 60.5264 43.5477 60.5264 42.4431C60.5264 41.3385 59.6309 40.4431 58.5264 40.4431C57.4218 40.4431 56.5264 41.3385 56.5264 42.4431C56.5264 43.5477 57.4218 44.4431 58.5264 44.4431ZM74.5264 44.4431C75.6309 44.4431 76.5264 43.5477 76.5264 42.4431C76.5264 41.3385 75.6309 40.4431 74.5264 40.4431C73.4218 40.4431 72.5264 41.3385 72.5264 42.4431C72.5264 43.5477 73.4218 44.4431 74.5264 44.4431ZM92.5264 42.4431C92.5264 43.5477 91.6309 44.4431 90.5264 44.4431C89.4218 44.4431 88.5264 43.5477 88.5264 42.4431C88.5264 41.3385 89.4218 40.4431 90.5264 40.4431C91.6309 40.4431 92.5264 41.3385 92.5264 42.4431ZM106.526 44.4431C107.631 44.4431 108.526 43.5477 108.526 42.4431C108.526 41.3385 107.631 40.4431 106.526 40.4431C105.422 40.4431 104.526 41.3385 104.526 42.4431C104.526 43.5477 105.422 44.4431 106.526 44.4431ZM124.526 42.4431C124.526 43.5477 123.631 44.4431 122.526 44.4431C121.422 44.4431 120.526 43.5477 120.526 42.4431C120.526 41.3385 121.422 40.4431 122.526 40.4431C123.631 40.4431 124.526 41.3385 124.526 42.4431ZM138.526 44.4431C139.631 44.4431 140.526 43.5477 140.526 42.4431C140.526 41.3385 139.631 40.4431 138.526 40.4431C137.422 40.4431 136.526 41.3385 136.526 42.4431C136.526 43.5477 137.422 44.4431 138.526 44.4431ZM58.5264 28.4431C59.6309 28.4431 60.5264 27.5477 60.5264 26.4431C60.5264 25.3385 59.6309 24.4431 58.5264 24.4431C57.4218 24.4431 56.5264 25.3385 56.5264 26.4431C56.5264 27.5477 57.4218 28.4431 58.5264 28.4431ZM68.5264 58.4431C68.5264 59.5477 67.6309 60.4431 66.5264 60.4431C65.4218 60.4431 64.5264 59.5477 64.5264 58.4431C64.5264 57.3385 65.4218 56.4431 66.5264 56.4431C67.6309 56.4431 68.5264 57.3385 68.5264 58.4431ZM66.5264 76.4431C67.6309 76.4431 68.5264 75.5477 68.5264 74.4431C68.5264 73.3385 67.6309 72.4431 66.5264 72.4431C65.4218 72.4431 64.5264 73.3385 64.5264 74.4431C64.5264 75.5477 65.4218 76.4431 66.5264 76.4431ZM82.5264 76.4431C83.6309 76.4431 84.5264 75.5477 84.5264 74.4431C84.5264 73.3385 83.6309 72.4431 82.5264 72.4431C81.4218 72.4431 80.5264 73.3385 80.5264 74.4431C80.5264 75.5477 81.4218 76.4431 82.5264 76.4431ZM100.526 74.4431C100.526 75.5477 99.6309 76.4431 98.5264 76.4431C97.4218 76.4431 96.5264 75.5477 96.5264 74.4431C96.5264 73.3385 97.4218 72.4431 98.5264 72.4431C99.6309 72.4431 100.526 73.3385 100.526 74.4431ZM114.526 76.4431C115.631 76.4431 116.526 75.5477 116.526 74.4431C116.526 73.3385 115.631 72.4431 114.526 72.4431C113.422 72.4431 112.526 73.3385 112.526 74.4431C112.526 75.5477 113.422 76.4431 114.526 76.4431ZM132.526 74.4431C132.526 75.5477 131.631 76.4431 130.526 76.4431C129.422 76.4431 128.526 75.5477 128.526 74.4431C128.526 73.3385 129.422 72.4431 130.526 72.4431C131.631 72.4431 132.526 73.3385 132.526 74.4431ZM146.526 76.4431C147.631 76.4431 148.526 75.5477 148.526 74.4431C148.526 73.3385 147.631 72.4431 146.526 72.4431C145.422 72.4431 144.526 73.3385 144.526 74.4431C144.526 75.5477 145.422 76.4431 146.526 76.4431ZM82.5264 60.4431C83.6309 60.4431 84.5264 59.5477 84.5264 58.4431C84.5264 57.3385 83.6309 56.4431 82.5264 56.4431C81.4218 56.4431 80.5264 57.3385 80.5264 58.4431C80.5264 59.5477 81.4218 60.4431 82.5264 60.4431ZM100.526 58.4431C100.526 59.5477 99.6309 60.4431 98.5264 60.4431C97.4218 60.4431 96.5264 59.5477 96.5264 58.4431C96.5264 57.3385 97.4218 56.4431 98.5264 56.4431C99.6309 56.4431 100.526 57.3385 100.526 58.4431ZM114.526 60.4431C115.631 60.4431 116.526 59.5477 116.526 58.4431C116.526 57.3385 115.631 56.4431 114.526 56.4431C113.422 56.4431 112.526 57.3385 112.526 58.4431C112.526 59.5477 113.422 60.4431 114.526 60.4431ZM132.526 58.4431C132.526 59.5477 131.631 60.4431 130.526 60.4431C129.422 60.4431 128.526 59.5477 128.526 58.4431C128.526 57.3385 129.422 56.4431 130.526 56.4431C131.631 56.4431 132.526 57.3385 132.526 58.4431ZM146.526 60.4431C147.631 60.4431 148.526 59.5477 148.526 58.4431C148.526 57.3385 147.631 56.4431 146.526 56.4431C145.422 56.4431 144.526 57.3385 144.526 58.4431C144.526 59.5477 145.422 60.4431 146.526 60.4431ZM74.5264 28.4431C75.6309 28.4431 76.5264 27.5477 76.5264 26.4431C76.5264 25.3385 75.6309 24.4431 74.5264 24.4431C73.4218 24.4431 72.5264 25.3385 72.5264 26.4431C72.5264 27.5477 73.4218 28.4431 74.5264 28.4431ZM164.526 58.4431C164.526 59.5477 163.631 60.4431 162.526 60.4431C161.422 60.4431 160.526 59.5477 160.526 58.4431C160.526 57.3385 161.422 56.4431 162.526 56.4431C163.631 56.4431 164.526 57.3385 164.526 58.4431ZM162.526 76.4431C163.631 76.4431 164.526 75.5477 164.526 74.4431C164.526 73.3385 163.631 72.4431 162.526 72.4431C161.422 72.4431 160.526 73.3385 160.526 74.4431C160.526 75.5477 161.422 76.4431 162.526 76.4431ZM178.526 76.4431C179.631 76.4431 180.526 75.5477 180.526 74.4431C180.526 73.3385 179.631 72.4431 178.526 72.4431C177.422 72.4431 176.526 73.3385 176.526 74.4431C176.526 75.5477 177.422 76.4431 178.526 76.4431ZM196.526 74.4431C196.526 75.5477 195.631 76.4431 194.526 76.4431C193.422 76.4431 192.526 75.5477 192.526 74.4431C192.526 73.3385 193.422 72.4431 194.526 72.4431C195.631 72.4431 196.526 73.3385 196.526 74.4431ZM210.526 76.4431C211.631 76.4431 212.526 75.5477 212.526 74.4431C212.526 73.3385 211.631 72.4431 210.526 72.4431C209.422 72.4431 208.526 73.3385 208.526 74.4431C208.526 75.5477 209.422 76.4431 210.526 76.4431ZM228.526 74.4431C228.526 75.5477 227.631 76.4431 226.526 76.4431C225.422 76.4431 224.526 75.5477 224.526 74.4431C224.526 73.3385 225.422 72.4431 226.526 72.4431C227.631 72.4431 228.526 73.3385 228.526 74.4431ZM242.526 76.4431C243.631 76.4431 244.526 75.5477 244.526 74.4431C244.526 73.3385 243.631 72.4431 242.526 72.4431C241.422 72.4431 240.526 73.3385 240.526 74.4431C240.526 75.5477 241.422 76.4431 242.526 76.4431ZM178.526 60.4431C179.631 60.4431 180.526 59.5477 180.526 58.4431C180.526 57.3385 179.631 56.4431 178.526 56.4431C177.422 56.4431 176.526 57.3385 176.526 58.4431C176.526 59.5477 177.422 60.4431 178.526 60.4431ZM196.526 58.4431C196.526 59.5477 195.631 60.4431 194.526 60.4431C193.422 60.4431 192.526 59.5477 192.526 58.4431C192.526 57.3385 193.422 56.4431 194.526 56.4431C195.631 56.4431 196.526 57.3385 196.526 58.4431ZM210.526 60.4431C211.631 60.4431 212.526 59.5477 212.526 58.4431C212.526 57.3385 211.631 56.4431 210.526 56.4431C209.422 56.4431 208.526 57.3385 208.526 58.4431C208.526 59.5477 209.422 60.4431 210.526 60.4431ZM228.526 58.4431C228.526 59.5477 227.631 60.4431 226.526 60.4431C225.422 60.4431 224.526 59.5477 224.526 58.4431C224.526 57.3385 225.422 56.4431 226.526 56.4431C227.631 56.4431 228.526 57.3385 228.526 58.4431ZM242.526 60.4431C243.631 60.4431 244.526 59.5477 244.526 58.4431C244.526 57.3385 243.631 56.4431 242.526 56.4431C241.422 56.4431 240.526 57.3385 240.526 58.4431C240.526 59.5477 241.422 60.4431 242.526 60.4431ZM90.5264 28.4431C91.6309 28.4431 92.5264 27.5477 92.5264 26.4431C92.5264 25.3385 91.6309 24.4431 90.5264 24.4431C89.4218 24.4431 88.5264 25.3385 88.5264 26.4431C88.5264 27.5477 89.4218 28.4431 90.5264 28.4431ZM108.526 26.4431C108.526 27.5477 107.631 28.4431 106.526 28.4431C105.422 28.4431 104.526 27.5477 104.526 26.4431C104.526 25.3385 105.422 24.4431 106.526 24.4431C107.631 24.4431 108.526 25.3385 108.526 26.4431ZM122.526 28.4431C123.631 28.4431 124.526 27.5477 124.526 26.4431C124.526 25.3385 123.631 24.4431 122.526 24.4431C121.422 24.4431 120.526 25.3385 120.526 26.4431C120.526 27.5477 121.422 28.4431 122.526 28.4431ZM140.526 26.4431C140.526 27.5477 139.631 28.4431 138.526 28.4431C137.422 28.4431 136.526 27.5477 136.526 26.4431C136.526 25.3385 137.422 24.4431 138.526 24.4431C139.631 24.4431 140.526 25.3385 140.526 26.4431Z" fill="white"/>
<path fill-rule="evenodd" clip-rule="evenodd" d="M164.526 90.4431C164.526 91.5477 163.631 92.4431 162.526 92.4431C161.422 92.4431 160.526 91.5477 160.526 90.4431C160.526 89.3385 161.422 88.4431 162.526 88.4431C163.631 88.4431 164.526 89.3385 164.526 90.4431ZM162.526 108.443C163.631 108.443 164.526 107.548 164.526 106.443C164.526 105.339 163.631 104.443 162.526 104.443C161.422 104.443 160.526 105.339 160.526 106.443C160.526 107.548 161.422 108.443 162.526 108.443ZM178.526 108.443C179.631 108.443 180.526 107.548 180.526 106.443C180.526 105.339 179.631 104.443 178.526 104.443C177.422 104.443 176.526 105.339 176.526 106.443C176.526 107.548 177.422 108.443 178.526 108.443ZM196.526 106.443C196.526 107.548 195.631 108.443 194.526 108.443C193.422 108.443 192.526 107.548 192.526 106.443C192.526 105.339 193.422 104.443 194.526 104.443C195.631 104.443 196.526 105.339 196.526 106.443ZM210.526 108.443C211.631 108.443 212.526 107.548 212.526 106.443C212.526 105.339 211.631 104.443 210.526 104.443C209.422 104.443 208.526 105.339 208.526 106.443C208.526 107.548 209.422 108.443 210.526 108.443ZM228.526 106.443C228.526 107.548 227.631 108.443 226.526 108.443C225.422 108.443 224.526 107.548 224.526 106.443C224.526 105.339 225.422 104.443 226.526 104.443C227.631 104.443 228.526 105.339 228.526 106.443ZM242.526 108.443C243.631 108.443 244.526 107.548 244.526 106.443C244.526 105.339 243.631 104.443 242.526 104.443C241.422 104.443 240.526 105.339 240.526 106.443C240.526 107.548 241.422 108.443 242.526 108.443ZM178.526 92.4431C179.631 92.4431 180.526 91.5477 180.526 90.4431C180.526 89.3385 179.631 88.4431 178.526 88.4431C177.422 88.4431 176.526 89.3385 176.526 90.4431C176.526 91.5477 177.422 92.4431 178.526 92.4431ZM196.526 90.4431C196.526 91.5477 195.631 92.4431 194.526 92.4431C193.422 92.4431 192.526 91.5477 192.526 90.4431C192.526 89.3385 193.422 88.4431 194.526 88.4431C195.631 88.4431 196.526 89.3385 196.526 90.4431ZM210.526 92.4431C211.631 92.4431 212.526 91.5477 212.526 90.4431C212.526 89.3385 211.631 88.4431 210.526 88.4431C209.422 88.4431 208.526 89.3385 208.526 90.4431C208.526 91.5477 209.422 92.4431 210.526 92.4431ZM228.526 90.4431C228.526 91.5477 227.631 92.4431 226.526 92.4431C225.422 92.4431 224.526 91.5477 224.526 90.4431C224.526 89.3385 225.422 88.4431 226.526 88.4431C227.631 88.4431 228.526 89.3385 228.526 90.4431ZM242.526 92.4431C243.631 92.4431 244.526 91.5477 244.526 90.4431C244.526 89.3385 243.631 88.4431 242.526 88.4431C241.422 88.4431 240.526 89.3385 240.526 90.4431C240.526 91.5477 241.422 92.4431 242.526 92.4431ZM58.5264 108.443C59.6309 108.443 60.5264 107.548 60.5264 106.443C60.5264 105.339 59.6309 104.443 58.5264 104.443C57.4218 104.443 56.5264 105.339 56.5264 106.443C56.5264 107.548 57.4218 108.443 58.5264 108.443ZM74.5264 108.443C75.6309 108.443 76.5264 107.548 76.5264 106.443C76.5264 105.339 75.6309 104.443 74.5264 104.443C73.4218 104.443 72.5264 105.339 72.5264 106.443C72.5264 107.548 73.4218 108.443 74.5264 108.443ZM92.5264 106.443C92.5264 107.548 91.6309 108.443 90.5264 108.443C89.4218 108.443 88.5264 107.548 88.5264 106.443C88.5264 105.339 89.4218 104.443 90.5264 104.443C91.6309 104.443 92.5264 105.339 92.5264 106.443ZM106.526 108.443C107.631 108.443 108.526 107.548 108.526 106.443C108.526 105.339 107.631 104.443 106.526 104.443C105.422 104.443 104.526 105.339 104.526 106.443C104.526 107.548 105.422 108.443 106.526 108.443ZM124.526 106.443C124.526 107.548 123.631 108.443 122.526 108.443C121.422 108.443 120.526 107.548 120.526 106.443C120.526 105.339 121.422 104.443 122.526 104.443C123.631 104.443 124.526 105.339 124.526 106.443ZM138.526 108.443C139.631 108.443 140.526 107.548 140.526 106.443C140.526 105.339 139.631 104.443 138.526 104.443C137.422 104.443 136.526 105.339 136.526 106.443C136.526 107.548 137.422 108.443 138.526 108.443ZM58.5264 92.4431C59.6309 92.4431 60.5264 91.5477 60.5264 90.4431C60.5264 89.3385 59.6309 88.4431 58.5264 88.4431C57.4218 88.4431 56.5264 89.3385 56.5264 90.4431C56.5264 91.5477 57.4218 92.4431 58.5264 92.4431ZM68.5264 122.443C68.5264 123.548 67.6309 124.443 66.5264 124.443C65.4218 124.443 64.5264 123.548 64.5264 122.443C64.5264 121.339 65.4218 120.443 66.5264 120.443C67.6309 120.443 68.5264 121.339 68.5264 122.443ZM66.5264 140.443C67.6309 140.443 68.5264 139.548 68.5264 138.443C68.5264 137.339 67.6309 136.443 66.5264 136.443C65.4218 136.443 64.5264 137.339 64.5264 138.443C64.5264 139.548 65.4218 140.443 66.5264 140.443ZM82.5264 140.443C83.6309 140.443 84.5264 139.548 84.5264 138.443C84.5264 137.339 83.6309 136.443 82.5264 136.443C81.4218 136.443 80.5264 137.339 80.5264 138.443C80.5264 139.548 81.4218 140.443 82.5264 140.443ZM100.526 138.443C100.526 139.548 99.6309 140.443 98.5264 140.443C97.4218 140.443 96.5264 139.548 96.5264 138.443C96.5264 137.339 97.4218 136.443 98.5264 136.443C99.6309 136.443 100.526 137.339 100.526 138.443ZM114.526 140.443C115.631 140.443 116.526 139.548 116.526 138.443C116.526 137.339 115.631 136.443 114.526 136.443C113.422 136.443 112.526 137.339 112.526 138.443C112.526 139.548 113.422 140.443 114.526 140.443ZM132.526 138.443C132.526 139.548 131.631 140.443 130.526 140.443C129.422 140.443 128.526 139.548 128.526 138.443C128.526 137.339 129.422 136.443 130.526 136.443C131.631 136.443 132.526 137.339 132.526 138.443ZM146.526 140.443C147.631 140.443 148.526 139.548 148.526 138.443C148.526 137.339 147.631 136.443 146.526 136.443C145.422 136.443 144.526 137.339 144.526 138.443C144.526 139.548 145.422 140.443 146.526 140.443ZM82.5264 124.443C83.6309 124.443 84.5264 123.548 84.5264 122.443C84.5264 121.339 83.6309 120.443 82.5264 120.443C81.4218 120.443 80.5264 121.339 80.5264 122.443C80.5264 123.548 81.4218 124.443 82.5264 124.443ZM100.526 122.443C100.526 123.548 99.6309 124.443 98.5264 124.443C97.4218 124.443 96.5264 123.548 96.5264 122.443C96.5264 121.339 97.4218 120.443 98.5264 120.443C99.6309 120.443 100.526 121.339 100.526 122.443ZM114.526 124.443C115.631 124.443 116.526 123.548 116.526 122.443C116.526 121.339 115.631 120.443 114.526 120.443C113.422 120.443 112.526 121.339 112.526 122.443C112.526 123.548 113.422 124.443 114.526 124.443ZM132.526 122.443C132.526 123.548 131.631 124.443 130.526 124.443C129.422 124.443 128.526 123.548 128.526 122.443C128.526 121.339 129.422 120.443 130.526 120.443C131.631 120.443 132.526 121.339 132.526 122.443ZM146.526 124.443C147.631 124.443 148.526 123.548 148.526 122.443C148.526 121.339 147.631 120.443 146.526 120.443C145.422 120.443 144.526 121.339 144.526 122.443C144.526 123.548 145.422 124.443 146.526 124.443ZM74.5264 92.4431C75.6309 92.4431 76.5264 91.5477 76.5264 90.4431C76.5264 89.3385 75.6309 88.4431 74.5264 88.4431C73.4218 88.4431 72.5264 89.3385 72.5264 90.4431C72.5264 91.5477 73.4218 92.4431 74.5264 92.4431ZM164.526 122.443C164.526 123.548 163.631 124.443 162.526 124.443C161.422 124.443 160.526 123.548 160.526 122.443C160.526 121.339 161.422 120.443 162.526 120.443C163.631 120.443 164.526 121.339 164.526 122.443ZM162.526 140.443C163.631 140.443 164.526 139.548 164.526 138.443C164.526 137.339 163.631 136.443 162.526 136.443C161.422 136.443 160.526 137.339 160.526 138.443C160.526 139.548 161.422 140.443 162.526 140.443ZM178.526 140.443C179.631 140.443 180.526 139.548 180.526 138.443C180.526 137.339 179.631 136.443 178.526 136.443C177.422 136.443 176.526 137.339 176.526 138.443C176.526 139.548 177.422 140.443 178.526 140.443ZM196.526 138.443C196.526 139.548 195.631 140.443 194.526 140.443C193.422 140.443 192.526 139.548 192.526 138.443C192.526 137.339 193.422 136.443 194.526 136.443C195.631 136.443 196.526 137.339 196.526 138.443ZM210.526 140.443C211.631 140.443 212.526 139.548 212.526 138.443C212.526 137.339 211.631 136.443 210.526 136.443C209.422 136.443 208.526 137.339 208.526 138.443C208.526 139.548 209.422 140.443 210.526 140.443ZM228.526 138.443C228.526 139.548 227.631 140.443 226.526 140.443C225.422 140.443 224.526 139.548 224.526 138.443C224.526 137.339 225.422 136.443 226.526 136.443C227.631 136.443 228.526 137.339 228.526 138.443ZM242.526 140.443C243.631 140.443 244.526 139.548 244.526 138.443C244.526 137.339 243.631 136.443 242.526 136.443C241.422 136.443 240.526 137.339 240.526 138.443C240.526 139.548 241.422 140.443 242.526 140.443ZM178.526 124.443C179.631 124.443 180.526 123.548 180.526 122.443C180.526 121.339 179.631 120.443 178.526 120.443C177.422 120.443 176.526 121.339 176.526 122.443C176.526 123.548 177.422 124.443 178.526 124.443ZM196.526 122.443C196.526 123.548 195.631 124.443 194.526 124.443C193.422 124.443 192.526 123.548 192.526 122.443C192.526 121.339 193.422 120.443 194.526 120.443C195.631 120.443 196.526 121.339 196.526 122.443ZM210.526 124.443C211.631 124.443 212.526 123.548 212.526 122.443C212.526 121.339 211.631 120.443 210.526 120.443C209.422 120.443 208.526 121.339 208.526 122.443C208.526 123.548 209.422 124.443 210.526 124.443ZM228.526 122.443C228.526 123.548 227.631 124.443 226.526 124.443C225.422 124.443 224.526 123.548 224.526 122.443C224.526 121.339 225.422 120.443 226.526 120.443C227.631 120.443 228.526 121.339 228.526 122.443ZM242.526 124.443C243.631 124.443 244.526 123.548 244.526 122.443C244.526 121.339 243.631 120.443 242.526 120.443C241.422 120.443 240.526 121.339 240.526 122.443C240.526 123.548 241.422 124.443 242.526 124.443ZM90.5264 92.4431C91.6309 92.4431 92.5264 91.5477 92.5264 90.4431C92.5264 89.3385 91.6309 88.4431 90.5264 88.4431C89.4218 88.4431 88.5264 89.3385 88.5264 90.4431C88.5264 91.5477 89.4218 92.4431 90.5264 92.4431ZM108.526 90.4431C108.526 91.5477 107.631 92.4431 106.526 92.4431C105.422 92.4431 104.526 91.5477 104.526 90.4431C104.526 89.3385 105.422 88.4431 106.526 88.4431C107.631 88.4431 108.526 89.3385 108.526 90.4431ZM122.526 92.4431C123.631 92.4431 124.526 91.5477 124.526 90.4431C124.526 89.3385 123.631 88.4431 122.526 88.4431C121.422 88.4431 120.526 89.3385 120.526 90.4431C120.526 91.5477 121.422 92.4431 122.526 92.4431ZM140.526 90.4431C140.526 91.5477 139.631 92.4431 138.526 92.4431C137.422 92.4431 136.526 91.5477 136.526 90.4431C136.526 89.3385 137.422 88.4431 138.526 88.4431C139.631 88.4431 140.526 89.3385 140.526 90.4431Z" fill="white"/>
</g>
<g filter="url(#filter0_d_4_154)">
<path fill-rule="evenodd" clip-rule="evenodd" d="M339.565 21.2668C344.852 16.676 352.789 16.9553 357.74 21.9058C362.69 26.8564 362.97 34.7932 358.381 40.0806L358.353 40.1126C355.091 43.8692 287.686 121.494 277.05 132.131C271.702 137.479 262.622 144.274 254.263 150.124L229.628 125.256C235.478 116.905 242.243 107.869 247.516 102.596C258.06 92.0518 336.242 24.1524 339.565 21.2668ZM224.456 130.716C222.814 130.485 221.136 130.375 219.43 130.409C211.231 130.568 198.544 133.91 184.664 148.918C173.646 160.832 173.196 173.421 172.799 184.528L172.799 184.529C172.42 195.146 172.121 203.531 163.313 209.659C162.447 210.262 161.981 211.289 162.098 212.337C162.172 212.997 162.469 213.597 162.922 214.05C163.19 214.318 163.512 214.535 163.875 214.682C180.268 221.321 208.31 218.07 231.142 195.237C241.512 184.867 247.701 173.89 249.039 163.494C249.387 160.782 249.394 158.136 249.091 155.585L224.456 130.716ZM219.997 149.829C219.105 151.078 217.779 151.905 216.265 152.158C205.225 153.998 201.389 161.326 201.231 161.637C200.296 163.583 198.262 164.862 196.065 164.862C195.871 164.862 195.676 164.852 195.482 164.832C194.821 164.764 194.181 164.583 193.578 164.294C190.721 162.92 189.515 159.48 190.887 156.623C191.141 156.095 197.297 143.666 214.375 140.818C214.689 140.767 215.008 140.74 215.322 140.74C218.143 140.74 220.526 142.761 220.989 145.543C221.241 147.057 220.889 148.579 219.997 149.829Z" fill="url(#paint0_linear_4_154)"/>
</g>
<mask id="mask1_4_154" style="mask-type:luminance" maskUnits="userSpaceOnUse" x="40" y="0" width="195" height="75">
<rect x="40" width="195" height="75" rx="20" fill="white"/>
</mask>
<g mask="url(#mask1_4_154)">
<path d="M116 67C149.137 67 176 40.1371 176 7C176 -26.1371 149.137 -53 116 -53C82.8629 -53 56 -26.1371 56 7C56 40.1371 82.8629 67 116 67Z" fill="#E7A651"/>
<path d="M169 48C195.51 48 217 26.5097 217 0C217 -26.5097 195.51 -48 169 -48C142.49 -48 121 -26.5097 121 0C121 26.5097 142.49 48 169 48Z" fill="#55B184"/>
</g>
<path d="M10 176H116C127.201 176 132.802 176 137.08 178.18C140.843 180.097 143.903 183.157 145.82 186.92C148 191.198 148 196.799 148 208V256H42C30.799 256 25.1984 256 20.9202 253.82C17.1569 251.903 14.0973 248.843 12.1799 245.08C10 240.802 10 235.201 10 224V176Z" fill="#E7A651"/>
<path d="M48.7852 206.938C50.3164 206.938 51.6836 207.289 52.8867 207.992C54.0977 208.695 55.043 209.672 55.7227 210.922C56.4102 212.172 56.7539 213.582 56.7539 215.152V215.797C56.7539 217.367 56.4141 218.777 55.7344 220.027C55.0547 221.27 54.1172 222.242 52.9219 222.945C51.7266 223.648 50.3828 224 48.8906 224H45.0586H43.1953V206.938H47.5664H48.7852ZM52.2773 215.129C52.2773 213.598 51.9805 212.441 51.3867 211.66C50.793 210.871 49.9258 210.477 48.7852 210.477H47.5664V220.473H48.8906C49.9766 220.473 50.8125 220.082 51.3984 219.301C51.9844 218.52 52.2773 217.352 52.2773 215.797V215.129ZM70.1836 219.066H62.4844C62.6484 219.629 62.9531 220.066 63.3984 220.379C63.8516 220.684 64.4102 220.836 65.0742 220.836C65.6367 220.836 66.168 220.742 66.668 220.555C67.1758 220.367 67.6055 220.062 67.957 219.641L69.8203 222.09C69.5391 222.465 69.1523 222.816 68.6602 223.145C68.1758 223.465 67.6016 223.727 66.9375 223.93C66.2734 224.133 65.5586 224.234 64.793 224.234C63.4336 224.234 62.25 223.953 61.2422 223.391C60.2344 222.828 59.4648 222.078 58.9336 221.141C58.4102 220.195 58.1484 219.172 58.1484 218.07V217.637C58.1484 216.41 58.375 215.305 58.8281 214.32C59.2812 213.328 59.9727 212.543 60.9023 211.965C61.832 211.379 62.9805 211.086 64.3477 211.086C65.5352 211.086 66.5664 211.332 67.4414 211.824C68.3242 212.316 69 213.027 69.4688 213.957C69.9453 214.887 70.1836 215.992 70.1836 217.273V219.066ZM66.0938 216.066C66.125 215.012 65.5312 214.484 64.3125 214.484C63.7344 214.484 63.3008 214.656 63.0117 215C62.7227 215.344 62.5312 215.812 62.4375 216.406H66.0938V216.066ZM75.7617 219.16C74.4258 218.871 73.3516 218.402 72.5391 217.754C71.7266 217.098 71.3203 216.238 71.3203 215.176C71.3203 214.434 71.5273 213.754 71.9414 213.137C72.3633 212.512 72.9727 212.016 73.7695 211.648C74.5664 211.273 75.5117 211.086 76.6055 211.086C77.7461 211.086 78.7422 211.258 79.5938 211.602C80.4531 211.945 81.1133 212.434 81.5742 213.066C82.0352 213.691 82.2656 214.422 82.2656 215.258H78.0586C78.0586 214.773 77.9492 214.43 77.7305 214.227C77.5195 214.016 77.1406 213.91 76.5938 213.91C76.2344 213.91 75.9219 214 75.6562 214.18C75.3984 214.359 75.2695 214.609 75.2695 214.93C75.2695 215.547 75.9375 215.961 77.2734 216.172C78.2266 216.32 79.0586 216.539 79.7695 216.828C80.4883 217.109 81.0742 217.531 81.5273 218.094C81.9883 218.656 82.2188 219.387 82.2188 220.285C82.2188 221.035 81.9883 221.711 81.5273 222.312C81.0664 222.906 80.4102 223.375 79.5586 223.719C78.707 224.062 77.7188 224.234 76.5938 224.234C75.4219 224.234 74.4062 224.023 73.5469 223.602C72.6953 223.172 72.043 222.625 71.5898 221.961C71.1445 221.289 70.9219 220.605 70.9219 219.91H74.8242C74.8398 220.402 75.0117 220.773 75.3398 221.023C75.668 221.273 76.125 221.398 76.7109 221.398C77.1875 221.398 77.5508 221.309 77.8008 221.129C78.0586 220.941 78.1875 220.691 78.1875 220.379C78.1875 220.191 78.1133 220.035 77.9648 219.91C77.8242 219.777 77.582 219.656 77.2383 219.547C76.9023 219.43 76.4102 219.301 75.7617 219.16ZM86.2266 205.953C86.6719 205.953 87.0703 206.043 87.4219 206.223C87.7734 206.402 88.0469 206.652 88.2422 206.973C88.4453 207.293 88.5469 207.656 88.5469 208.062C88.5469 208.477 88.4492 208.844 88.2539 209.164C88.0586 209.484 87.7812 209.734 87.4219 209.914C87.0703 210.094 86.6719 210.184 86.2266 210.184C85.7734 210.184 85.3711 210.094 85.0195 209.914C84.668 209.734 84.3906 209.484 84.1875 209.164C83.9922 208.844 83.8945 208.477 83.8945 208.062C83.8945 207.656 83.9922 207.293 84.1875 206.973C84.3906 206.652 84.668 206.402 85.0195 206.223C85.3711 206.043 85.7734 205.953 86.2266 205.953ZM84.1406 224V211.32H88.3594V224H84.1406ZM102.387 211.32V223.449C102.387 224.613 102.113 225.609 101.566 226.438C101.02 227.273 100.25 227.906 99.2578 228.336C98.2656 228.773 97.1055 228.992 95.7773 228.992C94.8867 228.992 94.0078 228.828 93.1406 228.5C92.2734 228.172 91.5859 227.734 91.0781 227.188L92.8008 224.586C93.6133 225.367 94.5625 225.758 95.6484 225.758C96.4688 225.758 97.0938 225.551 97.5234 225.137C97.9531 224.723 98.168 224.137 98.168 223.379V222.98C97.4336 223.816 96.5078 224.234 95.3906 224.234C94.3359 224.234 93.4141 223.961 92.625 223.414C91.8438 222.859 91.2422 222.098 90.8203 221.129C90.3984 220.152 90.1875 219.047 90.1875 217.812V217.566C90.1875 216.285 90.3984 215.156 90.8203 214.18C91.2422 213.195 91.8477 212.434 92.6367 211.895C93.4258 211.355 94.3516 211.086 95.4141 211.086C96.7188 211.086 97.7266 211.523 98.4375 212.398L98.5781 211.32H102.387ZM96.457 220.859C97.2383 220.859 97.8086 220.625 98.168 220.156V215.176C97.8164 214.699 97.2539 214.461 96.4805 214.461C95.8242 214.461 95.3086 214.746 94.9336 215.316C94.5664 215.887 94.3828 216.637 94.3828 217.566V217.812C94.3828 218.719 94.5625 219.453 94.9219 220.016C95.2812 220.578 95.793 220.859 96.457 220.859ZM112.102 211.086C113.352 211.086 114.324 211.477 115.02 212.258C115.715 213.039 116.062 214.328 116.062 216.125V224H111.844V216.113C111.844 215.66 111.777 215.312 111.645 215.07C111.52 214.828 111.336 214.668 111.094 214.59C110.859 214.504 110.547 214.461 110.156 214.461C109.469 214.461 108.961 214.695 108.633 215.164V224H104.426V211.32H108.363L108.504 212.785C108.934 212.23 109.453 211.809 110.062 211.52C110.672 211.23 111.352 211.086 112.102 211.086Z" fill="white"/>
<defs>
<filter id="filter0_d_4_154" x="150.08" y="10" width="231.566" height="231.727" filterUnits="userSpaceOnUse" color-interpolation-filters="sRGB">
<feFlood flood-opacity="0" result="BackgroundImageFix"/>
<feColorMatrix in="SourceAlpha" type="matrix" values="0 0 0 0 0 0 0 0 0 0 0 0 0 0 0 0 0 0 127 0" result="hardAlpha"/>
<feOffset dx="4" dy="8"/>
<feGaussianBlur stdDeviation="8"/>
<feColorMatrix type="matrix" values="0 0 0 0 0 0 0 0 0 0.104891 0 0 0 0 0.295307 0 0 0 0.298149 0"/>
<feBlend mode="normal" in2="BackgroundImageFix" result="effect1_dropShadow_4_154"/>
<feBlend mode="normal" in="SourceGraphic" in2="effect1_dropShadow_4_154" result="shape"/>
</filter>
<linearGradient id="paint0_linear_4_154" x1="162.08" y1="18" x2="162.08" y2="217.727" gradientUnits="userSpaceOnUse">
<stop stop-color="#1E5FD4"/>
<stop offset="1" stop-color="#003189"/>
</linearGradient>
</defs>
</svg>
