<svg width="70" height="70" viewBox="0 0 70 70" fill="none" xmlns="http://www.w3.org/2000/svg">
<path d="M35 70C54.33 70 70 54.33 70 35C70 15.67 54.33 0 35 0C15.67 0 0 15.67 0 35C0 54.33 15.67 70 35 70Z" fill="#55B184"/>
<path fill-rule="evenodd" clip-rule="evenodd" d="M35.7988 23L32.8027 28.0788L30.9531 26.2005L30.25 27.0126C26.767 31.0259 25 34.6724 25 37.8511C25 42.8952 29.486 47 35 47C40.514 47 45 42.8952 45 37.8511C45 33.0103 39.8031 27.0412 36.7051 23.9133L35.7988 23ZM36.1914 26.2859C38.7674 29.0163 43 34.0777 43 37.8511C43 40.2819 41.6203 42.4299 39.5234 43.7141C39.822 42.9888 40 42.1892 40 41.3375C40 38.9171 38.3153 36.0461 36.9023 34.0649L36.0586 32.8795L33.8438 36.2568L32.4375 34.8273L31.7773 35.9351C30.5983 37.9133 30 39.7304 30 41.3375C30 42.1892 30.178 42.9888 30.4766 43.7141C28.3797 42.4299 27 40.2819 27 37.8511C27 35.4226 28.3976 32.4397 31.0566 29.1807L33.1973 31.3587L36.1914 26.2859ZM38 41.3375C38 40.1217 37.3335 38.4259 36.1035 36.4772L34.1562 39.4474L32.8652 38.137C32.2902 39.3274 32 40.4003 32 41.3375C32 43.3391 33.346 44.9669 35 44.9669C36.654 44.9669 38 43.3391 38 41.3375Z" fill="white"/>
</svg>
