<svg width="352" height="256" viewBox="0 0 352 256" fill="none" xmlns="http://www.w3.org/2000/svg">
<rect width="370" height="256" rx="20" fill="#6C4DC2"/>
<path fill-rule="evenodd" clip-rule="evenodd" d="M135 165C135 166.105 134.105 167 133 167C131.895 167 131 166.105 131 165C131 163.895 131.895 163 133 163C134.105 163 135 163.895 135 165ZM133 183C134.105 183 135 182.105 135 181C135 179.895 134.105 179 133 179C131.895 179 131 179.895 131 181C131 182.105 131.895 183 133 183ZM149 183C150.105 183 151 182.105 151 181C151 179.895 150.105 179 149 179C147.895 179 147 179.895 147 181C147 182.105 147.895 183 149 183ZM167 181C167 182.105 166.105 183 165 183C163.895 183 163 182.105 163 181C163 179.895 163.895 179 165 179C166.105 179 167 179.895 167 181ZM181 183C182.105 183 183 182.105 183 181C183 179.895 182.105 179 181 179C179.895 179 179 179.895 179 181C179 182.105 179.895 183 181 183ZM199 181C199 182.105 198.105 183 197 183C195.895 183 195 182.105 195 181C195 179.895 195.895 179 197 179C198.105 179 199 179.895 199 181ZM213 183C214.105 183 215 182.105 215 181C215 179.895 214.105 179 213 179C211.895 179 211 179.895 211 181C211 182.105 211.895 183 213 183ZM149 167C150.105 167 151 166.105 151 165C151 163.895 150.105 163 149 163C147.895 163 147 163.895 147 165C147 166.105 147.895 167 149 167ZM167 165C167 166.105 166.105 167 165 167C163.895 167 163 166.105 163 165C163 163.895 163.895 163 165 163C166.105 163 167 163.895 167 165ZM181 167C182.105 167 183 166.105 183 165C183 163.895 182.105 163 181 163C179.895 163 179 163.895 179 165C179 166.105 179.895 167 181 167ZM199 165C199 166.105 198.105 167 197 167C195.895 167 195 166.105 195 165C195 163.895 195.895 163 197 163C198.105 163 199 163.895 199 165ZM213 167C214.105 167 215 166.105 215 165C215 163.895 214.105 163 213 163C211.895 163 211 163.895 211 165C211 166.105 211.895 167 213 167ZM29 183C30.1046 183 31 182.105 31 181C31 179.895 30.1046 179 29 179C27.8954 179 27 179.895 27 181C27 182.105 27.8954 183 29 183ZM45 183C46.1046 183 47 182.105 47 181C47 179.895 46.1046 179 45 179C43.8954 179 43 179.895 43 181C43 182.105 43.8954 183 45 183ZM63 181C63 182.105 62.1046 183 61 183C59.8954 183 59 182.105 59 181C59 179.895 59.8954 179 61 179C62.1046 179 63 179.895 63 181ZM77 183C78.1046 183 79 182.105 79 181C79 179.895 78.1046 179 77 179C75.8954 179 75 179.895 75 181C75 182.105 75.8954 183 77 183ZM95 181C95 182.105 94.1046 183 93 183C91.8954 183 91 182.105 91 181C91 179.895 91.8954 179 93 179C94.1046 179 95 179.895 95 181ZM109 183C110.105 183 111 182.105 111 181C111 179.895 110.105 179 109 179C107.895 179 107 179.895 107 181C107 182.105 107.895 183 109 183ZM29 167C30.1046 167 31 166.105 31 165C31 163.895 30.1046 163 29 163C27.8954 163 27 163.895 27 165C27 166.105 27.8954 167 29 167ZM39 197C39 198.105 38.1046 199 37 199C35.8954 199 35 198.105 35 197C35 195.895 35.8954 195 37 195C38.1046 195 39 195.895 39 197ZM37 215C38.1046 215 39 214.105 39 213C39 211.895 38.1046 211 37 211C35.8954 211 35 211.895 35 213C35 214.105 35.8954 215 37 215ZM53 215C54.1046 215 55 214.105 55 213C55 211.895 54.1046 211 53 211C51.8954 211 51 211.895 51 213C51 214.105 51.8954 215 53 215ZM71 213C71 214.105 70.1046 215 69 215C67.8954 215 67 214.105 67 213C67 211.895 67.8954 211 69 211C70.1046 211 71 211.895 71 213ZM85 215C86.1046 215 87 214.105 87 213C87 211.895 86.1046 211 85 211C83.8954 211 83 211.895 83 213C83 214.105 83.8954 215 85 215ZM103 213C103 214.105 102.105 215 101 215C99.8954 215 99 214.105 99 213C99 211.895 99.8954 211 101 211C102.105 211 103 211.895 103 213ZM117 215C118.105 215 119 214.105 119 213C119 211.895 118.105 211 117 211C115.895 211 115 211.895 115 213C115 214.105 115.895 215 117 215ZM53 199C54.1046 199 55 198.105 55 197C55 195.895 54.1046 195 53 195C51.8954 195 51 195.895 51 197C51 198.105 51.8954 199 53 199ZM71 197C71 198.105 70.1046 199 69 199C67.8954 199 67 198.105 67 197C67 195.895 67.8954 195 69 195C70.1046 195 71 195.895 71 197ZM85 199C86.1046 199 87 198.105 87 197C87 195.895 86.1046 195 85 195C83.8954 195 83 195.895 83 197C83 198.105 83.8954 199 85 199ZM103 197C103 198.105 102.105 199 101 199C99.8954 199 99 198.105 99 197C99 195.895 99.8954 195 101 195C102.105 195 103 195.895 103 197ZM117 199C118.105 199 119 198.105 119 197C119 195.895 118.105 195 117 195C115.895 195 115 195.895 115 197C115 198.105 115.895 199 117 199ZM45 167C46.1046 167 47 166.105 47 165C47 163.895 46.1046 163 45 163C43.8954 163 43 163.895 43 165C43 166.105 43.8954 167 45 167ZM135 197C135 198.105 134.105 199 133 199C131.895 199 131 198.105 131 197C131 195.895 131.895 195 133 195C134.105 195 135 195.895 135 197ZM133 215C134.105 215 135 214.105 135 213C135 211.895 134.105 211 133 211C131.895 211 131 211.895 131 213C131 214.105 131.895 215 133 215ZM149 215C150.105 215 151 214.105 151 213C151 211.895 150.105 211 149 211C147.895 211 147 211.895 147 213C147 214.105 147.895 215 149 215ZM167 213C167 214.105 166.105 215 165 215C163.895 215 163 214.105 163 213C163 211.895 163.895 211 165 211C166.105 211 167 211.895 167 213ZM181 215C182.105 215 183 214.105 183 213C183 211.895 182.105 211 181 211C179.895 211 179 211.895 179 213C179 214.105 179.895 215 181 215ZM199 213C199 214.105 198.105 215 197 215C195.895 215 195 214.105 195 213C195 211.895 195.895 211 197 211C198.105 211 199 211.895 199 213ZM213 215C214.105 215 215 214.105 215 213C215 211.895 214.105 211 213 211C211.895 211 211 211.895 211 213C211 214.105 211.895 215 213 215ZM149 199C150.105 199 151 198.105 151 197C151 195.895 150.105 195 149 195C147.895 195 147 195.895 147 197C147 198.105 147.895 199 149 199ZM167 197C167 198.105 166.105 199 165 199C163.895 199 163 198.105 163 197C163 195.895 163.895 195 165 195C166.105 195 167 195.895 167 197ZM181 199C182.105 199 183 198.105 183 197C183 195.895 182.105 195 181 195C179.895 195 179 195.895 179 197C179 198.105 179.895 199 181 199ZM199 197C199 198.105 198.105 199 197 199C195.895 199 195 198.105 195 197C195 195.895 195.895 195 197 195C198.105 195 199 195.895 199 197ZM213 199C214.105 199 215 198.105 215 197C215 195.895 214.105 195 213 195C211.895 195 211 195.895 211 197C211 198.105 211.895 199 213 199ZM61 167C62.1046 167 63 166.105 63 165C63 163.895 62.1046 163 61 163C59.8954 163 59 163.895 59 165C59 166.105 59.8954 167 61 167ZM79 165C79 166.105 78.1046 167 77 167C75.8954 167 75 166.105 75 165C75 163.895 75.8954 163 77 163C78.1046 163 79 163.895 79 165ZM93 167C94.1046 167 95 166.105 95 165C95 163.895 94.1046 163 93 163C91.8954 163 91 163.895 91 165C91 166.105 91.8954 167 93 167ZM111 165C111 166.105 110.105 167 109 167C107.895 167 107 166.105 107 165C107 163.895 107.895 163 109 163C110.105 163 111 163.895 111 165Z" fill="white"/>
<rect x="44" y="79" width="8" height="67" rx="4" fill="#55B184"/>
<rect x="60" y="69" width="8" height="77" rx="4" fill="#9882D4"/>
<rect x="76" y="50" width="8" height="96" rx="4" fill="#E7A651"/>
<rect x="92" y="98" width="8" height="48" rx="4" fill="#55B184"/>
<rect x="108" y="88" width="8" height="58" rx="4" fill="#9882D4"/>
<rect x="124" y="79" width="8" height="67" rx="4" fill="#55B184"/>
<rect x="140" y="86" width="8" height="60" rx="4" fill="#9882D4"/>
<path d="M80 39C82.7614 39 85 36.7614 85 34C85 31.2386 82.7614 29 80 29C77.2386 29 75 31.2386 75 34C75 36.7614 77.2386 39 80 39Z" fill="white"/>
<g filter="url(#filter0_d_4_153)">
<path fill-rule="evenodd" clip-rule="evenodd" d="M246.168 181.43H207.101C199.637 181.43 193.458 175.553 193.458 168.078V46.7896C193.458 39.3144 199.637 33.4842 207.101 33.4842H301.654C309.118 33.4842 315.211 39.3144 315.211 46.7896V148.425L332.675 127.631V33.8025C332.675 23.9727 324.913 16 315.112 16H192.948C183.523 16 176 23.6543 176 33.0862V181.542C176 191.372 183.848 199.371 193.676 199.371H262.275L254.169 192.321C250.619 189.236 247.95 185.462 246.168 181.43ZM294.382 55.9032H215.962C211.14 55.9032 207.26 59.8232 207.26 64.6452C207.26 69.4607 211.147 73.3807 215.962 73.3807H294.376C299.197 73.3807 303.065 69.4607 303.065 64.6452C303.078 59.8298 299.197 55.9032 294.382 55.9032ZM215.962 85.0412H294.382C299.197 85.0412 303.078 88.9546 303.065 93.7833C303.065 98.5855 299.197 102.525 294.376 102.525H215.962C211.147 102.525 207.26 98.5855 207.26 93.7833C207.26 88.9546 211.14 85.0412 215.962 85.0412ZM294.382 114.186H215.962C211.14 114.186 207.26 117.887 207.26 122.716C207.26 127.525 211.147 131.219 215.962 131.219H294.376C299.197 131.219 303.065 127.505 303.065 122.716C303.078 117.887 299.197 114.186 294.382 114.186ZM215.955 159.011C211.14 159.011 207.253 155.323 207.253 150.501C207.253 145.692 211.14 141.978 215.962 141.958H260.242C256.778 143.762 253.593 146.063 250.89 149.201C248.321 152.232 246.44 155.873 245.215 159.011H215.955ZM294.382 141.978H287.839C289.985 142.886 292.031 144.405 293.905 146.03L302.595 153.479C302.926 152.583 303.098 151.622 303.098 150.58C303.078 145.791 299.197 141.978 294.382 141.978ZM359.133 120.341C364.604 113.907 374.24 113.125 380.631 118.617C387.062 124.109 387.81 133.733 382.366 140.147L322.324 210.634C319.701 213.718 315.933 215.635 311.913 215.947C311.496 215.987 311.118 216 310.707 216C307.072 216 303.568 214.68 300.773 212.306L264.129 180.786C257.738 175.294 256.997 165.67 262.487 159.256C267.964 152.855 277.587 152.132 283.998 157.611L309.038 179.155L359.133 120.341Z" fill="url(#paint0_linear_4_153)"/>
</g>
<path d="M0 176H114C125.201 176 130.802 176 135.08 178.18C138.843 180.097 141.903 183.157 143.82 186.92C146 191.198 146 196.799 146 208V256H32C20.799 256 15.1984 256 10.9202 253.82C7.15695 251.903 4.09734 248.843 2.17987 245.08C0 240.802 0 235.201 0 224V176Z" fill="#55B184"/>
<path d="M46.8359 210.477H41.75V224H37.3672V210.477H32.4102V206.938H41.75H46.8359V210.477ZM59.9727 219.066H52.2734C52.4375 219.629 52.7422 220.066 53.1875 220.379C53.6406 220.684 54.1992 220.836 54.8633 220.836C55.4258 220.836 55.957 220.742 56.457 220.555C56.9648 220.367 57.3945 220.062 57.7461 219.641L59.6094 222.09C59.3281 222.465 58.9414 222.816 58.4492 223.145C57.9648 223.465 57.3906 223.727 56.7266 223.93C56.0625 224.133 55.3477 224.234 54.582 224.234C53.2227 224.234 52.0391 223.953 51.0312 223.391C50.0234 222.828 49.2539 222.078 48.7227 221.141C48.1992 220.195 47.9375 219.172 47.9375 218.07V217.637C47.9375 216.41 48.1641 215.305 48.6172 214.32C49.0703 213.328 49.7617 212.543 50.6914 211.965C51.6211 211.379 52.7695 211.086 54.1367 211.086C55.3242 211.086 56.3555 211.332 57.2305 211.824C58.1133 212.316 58.7891 213.027 59.2578 213.957C59.7344 214.887 59.9727 215.992 59.9727 217.273V219.066ZM55.8828 216.066C55.9141 215.012 55.3203 214.484 54.1016 214.484C53.5234 214.484 53.0898 214.656 52.8008 215C52.5117 215.344 52.3203 215.812 52.2266 216.406H55.8828V216.066ZM65.5508 219.16C64.2148 218.871 63.1406 218.402 62.3281 217.754C61.5156 217.098 61.1094 216.238 61.1094 215.176C61.1094 214.434 61.3164 213.754 61.7305 213.137C62.1523 212.512 62.7617 212.016 63.5586 211.648C64.3555 211.273 65.3008 211.086 66.3945 211.086C67.5352 211.086 68.5312 211.258 69.3828 211.602C70.2422 211.945 70.9023 212.434 71.3633 213.066C71.8242 213.691 72.0547 214.422 72.0547 215.258H67.8477C67.8477 214.773 67.7383 214.43 67.5195 214.227C67.3086 214.016 66.9297 213.91 66.3828 213.91C66.0234 213.91 65.7109 214 65.4453 214.18C65.1875 214.359 65.0586 214.609 65.0586 214.93C65.0586 215.547 65.7266 215.961 67.0625 216.172C68.0156 216.32 68.8477 216.539 69.5586 216.828C70.2773 217.109 70.8633 217.531 71.3164 218.094C71.7773 218.656 72.0078 219.387 72.0078 220.285C72.0078 221.035 71.7773 221.711 71.3164 222.312C70.8555 222.906 70.1992 223.375 69.3477 223.719C68.4961 224.062 67.5078 224.234 66.3828 224.234C65.2109 224.234 64.1953 224.023 63.3359 223.602C62.4844 223.172 61.832 222.625 61.3789 221.961C60.9336 221.289 60.7109 220.605 60.7109 219.91H64.6133C64.6289 220.402 64.8008 220.773 65.1289 221.023C65.457 221.273 65.9141 221.398 66.5 221.398C66.9766 221.398 67.3398 221.309 67.5898 221.129C67.8477 220.941 67.9766 220.691 67.9766 220.379C67.9766 220.191 67.9023 220.035 67.7539 219.91C67.6133 219.777 67.3711 219.656 67.0273 219.547C66.6914 219.43 66.1992 219.301 65.5508 219.16ZM79.8242 220.801C80.293 220.801 80.6211 220.785 80.8086 220.754V223.871C80.1133 224.113 79.3438 224.234 78.5 224.234C77.1328 224.234 76.0977 223.91 75.3945 223.262C74.6992 222.613 74.3516 221.598 74.3516 220.215V214.355H72.8516V211.32H74.3516V208.133H78.5586V211.32H80.5977V214.355H78.5586V219.57C78.5586 219.891 78.5938 220.141 78.6641 220.32C78.7344 220.492 78.8594 220.617 79.0391 220.695C79.2188 220.766 79.4805 220.801 79.8242 220.801ZM84.3125 205.953C84.7578 205.953 85.1562 206.043 85.5078 206.223C85.8594 206.402 86.1328 206.652 86.3281 206.973C86.5312 207.293 86.6328 207.656 86.6328 208.062C86.6328 208.477 86.5352 208.844 86.3398 209.164C86.1445 209.484 85.8672 209.734 85.5078 209.914C85.1562 210.094 84.7578 210.184 84.3125 210.184C83.8594 210.184 83.457 210.094 83.1055 209.914C82.7539 209.734 82.4766 209.484 82.2734 209.164C82.0781 208.844 81.9805 208.477 81.9805 208.062C81.9805 207.656 82.0781 207.293 82.2734 206.973C82.4766 206.652 82.7539 206.402 83.1055 206.223C83.457 206.043 83.8594 205.953 84.3125 205.953ZM82.2266 224V211.32H86.4453V224H82.2266ZM96.3125 211.086C97.5625 211.086 98.5352 211.477 99.2305 212.258C99.9258 213.039 100.273 214.328 100.273 216.125V224H96.0547V216.113C96.0547 215.66 95.9883 215.312 95.8555 215.07C95.7305 214.828 95.5469 214.668 95.3047 214.59C95.0703 214.504 94.7578 214.461 94.3672 214.461C93.6797 214.461 93.1719 214.695 92.8438 215.164V224H88.6367V211.32H92.5742L92.7148 212.785C93.1445 212.23 93.6641 211.809 94.2734 211.52C94.8828 211.23 95.5625 211.086 96.3125 211.086ZM114.066 211.32V223.449C114.066 224.613 113.793 225.609 113.246 226.438C112.699 227.273 111.93 227.906 110.938 228.336C109.945 228.773 108.785 228.992 107.457 228.992C106.566 228.992 105.688 228.828 104.82 228.5C103.953 228.172 103.266 227.734 102.758 227.188L104.48 224.586C105.293 225.367 106.242 225.758 107.328 225.758C108.148 225.758 108.773 225.551 109.203 225.137C109.633 224.723 109.848 224.137 109.848 223.379V222.98C109.113 223.816 108.188 224.234 107.07 224.234C106.016 224.234 105.094 223.961 104.305 223.414C103.523 222.859 102.922 222.098 102.5 221.129C102.078 220.152 101.867 219.047 101.867 217.812V217.566C101.867 216.285 102.078 215.156 102.5 214.18C102.922 213.195 103.527 212.434 104.316 211.895C105.105 211.355 106.031 211.086 107.094 211.086C108.398 211.086 109.406 211.523 110.117 212.398L110.258 211.32H114.066ZM108.137 220.859C108.918 220.859 109.488 220.625 109.848 220.156V215.176C109.496 214.699 108.934 214.461 108.16 214.461C107.504 214.461 106.988 214.746 106.613 215.316C106.246 215.887 106.062 216.637 106.062 217.566V217.812C106.062 218.719 106.242 219.453 106.602 220.016C106.961 220.578 107.473 220.859 108.137 220.859Z" fill="white"/>
<defs>
<filter id="filter0_d_4_153" x="164" y="8" width="242" height="232" filterUnits="userSpaceOnUse" color-interpolation-filters="sRGB">
<feFlood flood-opacity="0" result="BackgroundImageFix"/>
<feColorMatrix in="SourceAlpha" type="matrix" values="0 0 0 0 0 0 0 0 0 0 0 0 0 0 0 0 0 0 127 0" result="hardAlpha"/>
<feOffset dx="4" dy="8"/>
<feGaussianBlur stdDeviation="8"/>
<feColorMatrix type="matrix" values="0 0 0 0 0.10502 0 0 0 0 0 0 0 0 0 0.396365 0 0 0 0.203635 0"/>
<feBlend mode="normal" in2="BackgroundImageFix" result="effect1_dropShadow_4_153"/>
<feBlend mode="normal" in="SourceGraphic" in2="effect1_dropShadow_4_153" result="shape"/>
</filter>
<linearGradient id="paint0_linear_4_153" x1="176" y1="16" x2="176" y2="216" gradientUnits="userSpaceOnUse">
<stop stop-color="#5D3CB6"/>
<stop offset="1" stop-color="#351B7D"/>
</linearGradient>
</defs>
</svg>
