<svg width="70" height="70" viewBox="0 0 70 70" fill="none" xmlns="http://www.w3.org/2000/svg">
<path d="M35 70C54.33 70 70 54.33 70 35C70 15.67 54.33 0 35 0C15.67 0 0 15.67 0 35C0 54.33 15.67 70 35 70Z" fill="#3576EC"/>
<path fill-rule="evenodd" clip-rule="evenodd" d="M23 35C23 28.3828 28.3828 23 35 23C41.6172 23 47 28.3828 47 35C47 41.6172 41.6172 47 35 47C28.3828 47 23 41.6172 23 35ZM36 25.0625C35.6719 25.0312 35.3359 25 35 25C34.6641 25 34.3281 25.0312 34 25.0625V28.0938C34.3281 28.0469 34.6602 28 35 28C35.3398 28 35.6719 28.0469 36 28.0938V25.0625ZM32 25.4375V28.6875C30.5469 29.3828 29.3789 30.5469 28.6875 32H25.4688C26.4414 28.875 28.8828 26.4141 32 25.4375ZM44.5625 32C43.5859 28.8867 41.1133 26.4141 38 25.4375V28.6875C39.4531 29.3789 40.6211 30.5469 41.3125 32H44.5625ZM35 30C37.7734 30 40 32.2266 40 35C40 37.7734 37.7734 40 35 40C32.2266 40 30 37.7734 30 35C30 32.2266 32.2266 30 35 30ZM28.0625 34H25.0625C25.0312 34.3281 25 34.6641 25 35C25 35.3359 25.0312 35.6719 25.0625 36H28.0938C28.0469 35.6719 28 35.3398 28 35C28 34.6641 28.0156 34.3242 28.0625 34ZM41.9062 34H44.9375C44.9688 34.3281 45 34.6641 45 35C45 35.3359 44.9688 35.6719 44.9375 36H41.9062C41.9531 35.6719 42 35.3398 42 35C42 34.6602 41.9531 34.3281 41.9062 34ZM28.6875 38H25.4375C26.4141 41.1133 28.8867 43.5859 32 44.5625V41.3125C30.5469 40.6211 29.3789 39.4531 28.6875 38ZM41.3125 38H44.5625C43.5859 41.1133 41.1133 43.5859 38 44.5625V41.3125C39.4531 40.6211 40.6211 39.4531 41.3125 38ZM35 42C34.6602 42 34.3281 41.9531 34 41.9062V44.9375C34.3281 44.9688 34.6641 45 35 45C35.3359 45 35.6719 44.9688 36 44.9375V41.9062C35.6719 41.9531 35.3398 42 35 42Z" fill="white"/>
</svg>
