<svg width="48" height="48" viewBox="0 0 48 48" fill="none" xmlns="http://www.w3.org/2000/svg">
<rect width="48" height="48" rx="24" fill="#6C4DC2"/>
<path fill-rule="evenodd" clip-rule="evenodd" d="M18.4471 21.7764C18.4471 17.4903 21.9374 14 26.2236 14C30.5097 14 34 17.4903 34 21.7764C34 26.0626 30.5097 29.5529 26.2236 29.5529C24.3615 29.5529 22.6543 28.8998 21.3147 27.8032L15.1179 34L14 32.8821L20.1968 26.6853C19.1002 25.3457 18.4471 23.6385 18.4471 21.7764ZM32.4447 21.7764C32.4447 18.3317 29.6683 15.5553 26.2236 15.5553C22.7789 15.5553 20.0024 18.3317 20.0024 21.7764C20.0024 25.2211 22.7789 27.9976 26.2236 27.9976C29.6683 27.9976 32.4447 25.2211 32.4447 21.7764Z" fill="white"/>
</svg>
